<svg id="Layer_1" data-name="Layer 1" xmlns="http://www.w3.org/2000/svg" viewBox="0 0 170 30"><defs><style>.cls-1{fill:#fff;}.cls-1,.cls-2{fill-rule:evenodd;}.cls-2{fill:#f75454;}</style></defs><path class="cls-1" d="M166.23,28.69,165.07,15.4,160.6,28.69h-2.37L153.76,15.4l-1.17,13.29h-3.66l1.47-17.64h5.23l3.76,11.07,3.81-11.07h5.22l1.46,17.64Zm-23.59,0-4.59-7.76H137v7.76h-3.66V11.05h6.39a7.49,7.49,0,0,1,2.57.41,4.31,4.31,0,0,1,1.77,1.14,4.7,4.7,0,0,1,1,1.66,6,6,0,0,1,.34,2.07,4.34,4.34,0,0,1-1,2.9,5,5,0,0,1-2.78,1.52L147,28.69ZM141.9,16.2a1.94,1.94,0,0,0-.67-1.55,3.23,3.23,0,0,0-2.08-.56H137V18.3h2.16C141,18.3,141.9,17.6,141.9,16.2ZM125.57,27.83a10.19,10.19,0,0,1-9.25,0,8,8,0,0,1-3.22-3.18,9.56,9.56,0,0,1-1.17-4.78,9.59,9.59,0,0,1,1.17-4.8,8,8,0,0,1,3.22-3.16,10.29,10.29,0,0,1,9.26,0,8.06,8.06,0,0,1,3.21,3.16,9.59,9.59,0,0,1,1.17,4.8,9.56,9.56,0,0,1-1.17,4.78A8.07,8.07,0,0,1,125.57,27.83Zm-.76-12.11a5.61,5.61,0,0,0-7.72,0,5.63,5.63,0,0,0-1.51,4.15A5.66,5.66,0,0,0,117.09,24a5.58,5.58,0,0,0,7.72,0,5.66,5.66,0,0,0,1.51-4.16A5.63,5.63,0,0,0,124.81,15.72Zm-57.94,13L61.39,21.2H60.1v7.49H56.44V11.05H60.1V18h1.24l5.53-6.94h4.47L64.5,19.49l7,9.2Zm-18.19-.86a10.21,10.21,0,0,1-9.26,0,8,8,0,0,1-3.21-3.18A9.56,9.56,0,0,1,35,19.87a9.59,9.59,0,0,1,1.17-4.8,8,8,0,0,1,3.21-3.16,10.29,10.29,0,0,1,9.26,0,8,8,0,0,1,3.21,3.16,9.59,9.59,0,0,1,1.18,4.8,9.57,9.57,0,0,1-1.18,4.78A8,8,0,0,1,48.68,27.83Zm-.76-12.11a5.61,5.61,0,0,0-7.72,0,5.63,5.63,0,0,0-1.51,4.15A5.66,5.66,0,0,0,40.2,24a5.58,5.58,0,0,0,7.72,0,5.7,5.7,0,0,0,1.51-4.16A5.67,5.67,0,0,0,47.92,15.72ZM28.49,27.83a9.56,9.56,0,0,1-4.62,1.11,9.59,9.59,0,0,1-4.64-1.11A8,8,0,0,1,16,24.65a9.56,9.56,0,0,1-1.17-4.78A9.59,9.59,0,0,1,16,15.07a8,8,0,0,1,3.21-3.16,9.58,9.58,0,0,1,4.64-1.1,9.5,9.5,0,0,1,4.62,1.1,8,8,0,0,1,3.21,3.16,9.49,9.49,0,0,1,1.18,4.8,9.47,9.47,0,0,1-1.18,4.78A8,8,0,0,1,28.49,27.83Zm-.77-12.11a5.14,5.14,0,0,0-3.85-1.54A5.16,5.16,0,0,0,20,15.72a5.63,5.63,0,0,0-1.51,4.15A5.66,5.66,0,0,0,20,24a5.17,5.17,0,0,0,3.86,1.55A5.15,5.15,0,0,0,27.72,24a5.66,5.66,0,0,0,1.52-4.16A5.64,5.64,0,0,0,27.72,15.72Zm-16,11.65a5.79,5.79,0,0,1-4.12,1.32H.28V11.05H6a6.46,6.46,0,0,1,4.31,1.28,4.42,4.42,0,0,1,1.5,3.56A4.21,4.21,0,0,1,11.29,18a3.47,3.47,0,0,1-1.53,1.4,4.13,4.13,0,0,1,3.32,4.37A4.74,4.74,0,0,1,11.67,27.37ZM7.83,14.65A2.6,2.6,0,0,0,6,14.09H3.81v4.15H6.19a2.25,2.25,0,0,0,1.69-.58,2.16,2.16,0,0,0,.56-1.54A1.91,1.91,0,0,0,7.83,14.65Zm1.05,7.06a2.89,2.89,0,0,0-2.09-.65h-3v4.49H6.86a2.79,2.79,0,0,0,2-.62,2.09,2.09,0,0,0,.64-1.58A2.22,2.22,0,0,0,8.88,21.71Z"/><path class="cls-2" d="M106,23.5A6.39,6.39,0,0,1,100.75,30a.31.31,0,0,0-.1.05h-.18c0-1.41,0-2.83,0-4.24a.35.35,0,0,1,.16-.24,2.15,2.15,0,0,0,1.08-1.95V18.89H106V23.5Zm-4.29-6.41c0-1.1,0-2.17,0-3.24a2.14,2.14,0,0,1,4.27.09c0,1,0,2,0,3a.65.65,0,0,1,0,.11ZM96.42,29.23a6.25,6.25,0,0,1-3.27-5.53c0-2.56,0-5.13,0-7.69a1.09,1.09,0,0,1,0-.17h4.27v.33q0,3.64,0,7.29a2.25,2.25,0,0,0,1.13,2.08.41.41,0,0,1,.14.3c0,1.28,0,2.56,0,3.84,0,.11,0,.21,0,.32h-.18A7.53,7.53,0,0,1,96.42,29.23ZM93.14,14v-.33q0-3.59,0-7.18A2.21,2.21,0,0,0,92,4.46a.3.3,0,0,1-.13-.19V0a6.33,6.33,0,0,1,3.84,2,6.17,6.17,0,0,1,1.69,4.25q0,3.8,0,7.59c0,.06,0,.11,0,.19ZM89.59,4.78a1.81,1.81,0,0,0-.72,1.65c0,1.63,0,3.26,0,4.89v2.46a2.65,2.65,0,0,1,0,.27H84.59v-.28c0-2.48,0-5,0-7.44A6.38,6.38,0,0,1,90,0h.12V1.85c0,.56,0,1.11,0,1.67A1.18,1.18,0,0,1,89.59,4.78Zm-5,11.06h4.29v.34c0,2.43,0,4.86,0,7.29A6.43,6.43,0,0,1,83.59,30s-.07,0-.11,0h-.17c0-1.37,0-2.73,0-4.1a.44.44,0,0,1,.25-.43,2.12,2.12,0,0,0,1-1.92q0-3.68,0-7.35ZM81.37,30a12,12,0,0,1-1.47-.48A6.2,6.2,0,0,1,76,23.73c-.06-1.54,0-3.08,0-4.62v-.22H80.3v.32c0,1.45,0,2.91,0,4.36a2.16,2.16,0,0,0,1.09,1.95.38.38,0,0,1,.16.24c0,1.41,0,2.83,0,4.24ZM76,17.1V15.45c0-.48,0-1,0-1.46a2.13,2.13,0,0,1,2-2.15,2.1,2.1,0,0,1,2.25,2c.06,1.09,0,2.18,0,3.3Z"/></svg>